<?xml version="1.0" encoding="UTF-8" standalone="no"?>
<!-- Created with Inkscape (http://www.inkscape.org/) -->

<svg
   version="1.1"
   id="svg132"
   width="128"
   height="128"
   viewBox="0 0 128.00001 128"
   sodipodi:docname="icon.svg"
   inkscape:version="1.2.2 (b0a84865, 2022-12-01)"
   xmlns:inkscape="http://www.inkscape.org/namespaces/inkscape"
   xmlns:sodipodi="http://sodipodi.sourceforge.net/DTD/sodipodi-0.dtd"
   xmlns="http://www.w3.org/2000/svg"
   xmlns:svg="http://www.w3.org/2000/svg">
  <defs
     id="defs136" />
  <sodipodi:namedview
     id="namedview134"
     pagecolor="#505050"
     bordercolor="#eeeeee"
     borderopacity="1"
     inkscape:showpageshadow="0"
     inkscape:pageopacity="0"
     inkscape:pagecheckerboard="0"
     inkscape:deskcolor="#505050"
     showgrid="false"
     inkscape:zoom="2.6571747"
     inkscape:cx="38.386637"
     inkscape:cy="58.897144"
     inkscape:window-width="1408"
     inkscape:window-height="659"
     inkscape:window-x="131"
     inkscape:window-y="180"
     inkscape:window-maximized="0"
     inkscape:current-layer="g138" />
  <g
     inkscape:groupmode="layer"
     inkscape:label="Image"
     id="g138">
    <g
       id="g14578"
       transform="matrix(1.2973825,0,0,1.2088975,-19.03248,-18.314379)">
      <path
         id="rect352"
         style="fill:#9b3623;fill-opacity:1;stroke:#000000;stroke-width:1;stroke-linecap:round;stroke-linejoin:round;stroke-dasharray:none;stroke-opacity:1"
         d="m 15.169996,88.063461 c 0,0 2.685604,-3.12398 4.517245,-3.900235 2.848175,-1.207065 6.381316,0.345203 9.243062,-0.829326 2.924827,-1.200419 4.402056,-4.812587 7.318484,-6.033269 2.766201,-1.157804 6.150129,0.150374 8.948177,-0.928194 3.36518,-1.29718 5.44899,-4.891441 8.726722,-6.395966 2.994415,-1.374478 6.71086,-0.70456 9.628217,-2.235815 2.259306,-1.185858 3.390147,-3.988552 5.660432,-5.153253 2.042581,-1.047883 6.736504,-1.432222 6.736504,-1.432222 l 36.881271,16.747112 c 0,0 -4.47929,0.532475 -6.45612,1.522992 -2.80257,1.404262 -4.23934,5.034764 -7.208802,6.039066 -2.763974,0.934802 -6.01392,-1.422774 -8.744436,-0.394334 -2.875222,1.082943 -3.910991,4.986735 -6.645994,6.38653 -2.990991,1.530812 -6.92453,0.280671 -9.915965,1.810615 -2.555408,1.306941 -3.664684,4.640259 -6.212123,5.962665 -3.032775,1.574353 -7.15941,0.159368 -10.061384,1.963483 -2.760687,1.71629 -5.910351,7.757 -5.910351,7.757 z"
         sodipodi:nodetypes="csssssssccssssssscc" />
      <path
         id="path4524"
         style="fill:#fef5e6;fill-opacity:1;stroke:#000000;stroke-width:1;stroke-linecap:round;stroke-linejoin:round;stroke-dasharray:none;stroke-opacity:1"
         d="m 15.169996,81.523176 c 0,0 2.685604,-3.12398 4.517245,-3.900235 2.848175,-1.207065 6.381316,0.345203 9.243062,-0.829326 2.924827,-1.200419 4.402056,-4.812587 7.318484,-6.033269 2.766201,-1.157804 6.150129,0.150374 8.948177,-0.928194 3.36518,-1.29718 5.44899,-4.891441 8.726722,-6.395966 2.994415,-1.374478 6.71086,-0.70456 9.628217,-2.235815 2.259306,-1.185858 3.390147,-3.988552 5.660432,-5.153253 2.042581,-1.047883 6.736504,-1.432222 6.736504,-1.432222 l 36.881271,16.747112 c 0,0 -4.47929,0.532475 -6.45612,1.522992 -2.80257,1.404262 -4.23934,5.034764 -7.208802,6.039066 -2.763974,0.934802 -6.01392,-1.422774 -8.744436,-0.394334 -2.875222,1.082943 -3.910991,4.986735 -6.645994,6.38653 -2.990991,1.530812 -6.92453,0.280671 -9.915965,1.810615 -2.555408,1.306941 -3.664684,4.640259 -6.212123,5.962665 -3.032775,1.574353 -7.15941,0.159368 -10.061384,1.963483 -2.760687,1.71629 -5.910351,7.757005 -5.910351,7.757005 z"
         sodipodi:nodetypes="csssssssccssssssscc" />
      <path
         id="path4530"
         style="fill:#fcdb99;fill-opacity:1;stroke:#000000;stroke-width:1;stroke-linecap:round;stroke-linejoin:round;stroke-dasharray:none;stroke-opacity:1"
         d="m 15.169996,74.138896 c 0,0 2.685604,-3.12398 4.517245,-3.900235 2.848175,-1.207065 6.381316,0.345203 9.243062,-0.829326 2.924827,-1.200419 4.402056,-4.812587 7.318484,-6.033269 2.766201,-1.157804 6.150129,0.150374 8.948177,-0.928194 3.36518,-1.29718 5.44899,-4.891441 8.726722,-6.395966 2.994415,-1.374478 6.71086,-0.70456 9.628217,-2.235815 2.259306,-1.185858 3.390147,-3.988552 5.660432,-5.153253 2.042581,-1.047883 6.736504,-1.432222 6.736504,-1.432222 l 36.881271,16.747112 c 0,0 -4.47929,0.532475 -6.45612,1.522992 -2.80257,1.404262 -4.23934,5.034764 -7.208802,6.039066 -2.763974,0.934802 -6.01392,-1.422774 -8.744436,-0.394334 -2.875222,1.082943 -3.910991,4.986735 -6.645994,6.38653 -2.990991,1.530812 -6.92453,0.280671 -9.915965,1.810615 -2.555408,1.306941 -3.664684,4.640259 -6.212123,5.962665 -3.032775,1.574353 -7.15941,0.159368 -10.061384,1.963483 -2.760687,1.71629 -5.910351,7.757002 -5.910351,7.757002 z"
         sodipodi:nodetypes="csssssssccssssssscc" />
      <path
         id="path12591"
         style="fill:#9b3623;fill-opacity:1;stroke:#000000;stroke-width:1;stroke-linecap:round;stroke-linejoin:round;stroke-dasharray:none;stroke-opacity:1"
         d="m 15.169996,68.063461 c 0,0 2.685604,-3.12398 4.517245,-3.900235 2.848175,-1.207065 6.381316,0.345203 9.243062,-0.829326 2.924827,-1.200419 4.402056,-4.812587 7.318484,-6.033269 2.766201,-1.157804 6.150129,0.150374 8.948177,-0.928194 3.36518,-1.29718 5.44899,-4.891441 8.726722,-6.395966 2.994415,-1.374478 6.71086,-0.70456 9.628217,-2.235815 2.259306,-1.185858 3.390147,-3.988552 5.660432,-5.153253 2.042581,-1.047883 6.736504,-1.432222 6.736504,-1.432222 l 36.881271,16.747112 c 0,0 -4.47929,0.532475 -6.45612,1.522992 -2.80257,1.404262 -4.23934,5.034764 -7.208802,6.039066 -2.763974,0.934802 -6.01392,-1.422774 -8.744436,-0.394334 -2.875222,1.082943 -3.910991,4.986735 -6.645994,6.38653 -2.990991,1.530812 -6.92453,0.280671 -9.915965,1.810615 -2.555408,1.306941 -3.664684,4.640259 -6.212123,5.962665 -3.032775,1.574353 -7.15941,0.159368 -10.061384,1.963483 -2.760687,1.71629 -5.910351,7.757 -5.910351,7.757 z"
         sodipodi:nodetypes="csssssssccssssssscc" />
      <path
         id="path12593"
         style="fill:#fef5e6;fill-opacity:1;stroke:#000000;stroke-width:1;stroke-linecap:round;stroke-linejoin:round;stroke-dasharray:none;stroke-opacity:1"
         d="m 15.169996,61.523176 c 0,0 2.685604,-3.12398 4.517245,-3.900235 2.848175,-1.207065 6.381316,0.345203 9.243062,-0.829326 2.924827,-1.200419 4.402056,-4.812587 7.318484,-6.033269 2.766201,-1.157804 6.150129,0.150374 8.948177,-0.928194 3.36518,-1.29718 5.44899,-4.891441 8.726722,-6.395966 2.994415,-1.374478 6.71086,-0.70456 9.628217,-2.235815 2.259306,-1.185858 3.390147,-3.988552 5.660432,-5.153253 2.042581,-1.047883 6.736504,-1.432222 6.736504,-1.432222 l 36.881271,16.747112 c 0,0 -4.47929,0.532475 -6.45612,1.522992 -2.80257,1.404262 -4.23934,5.034764 -7.208802,6.039066 -2.763974,0.934802 -6.01392,-1.422774 -8.744436,-0.394334 -2.875222,1.082943 -3.910991,4.986735 -6.645994,6.38653 -2.990991,1.530812 -6.92453,0.280671 -9.915965,1.810615 -2.555408,1.306941 -3.664684,4.640259 -6.212123,5.962665 -3.032775,1.574353 -7.15941,0.159368 -10.061384,1.963483 -2.760687,1.71629 -5.910351,7.757005 -5.910351,7.757005 z"
         sodipodi:nodetypes="csssssssccssssssscc" />
      <g
         id="g14562">
        <path
           id="path12595"
           style="fill:#fcdb99;fill-opacity:1;stroke:#000000;stroke-width:1;stroke-linecap:round;stroke-linejoin:round;stroke-dasharray:none;stroke-opacity:1"
           d="m 15.169996,54.138896 c 0,0 2.685604,-3.12398 4.517245,-3.900235 2.848175,-1.207065 6.381316,0.345203 9.243062,-0.829326 2.924827,-1.200419 4.402056,-4.812587 7.318484,-6.033269 2.766201,-1.157804 6.150129,0.150374 8.948177,-0.928194 3.36518,-1.29718 5.44899,-4.891441 8.726722,-6.395966 2.994415,-1.374478 6.71086,-0.70456 9.628217,-2.235815 2.259306,-1.185858 3.390147,-3.988552 5.660432,-5.153253 2.042581,-1.047883 6.736504,-1.432222 6.736504,-1.432222 l 36.881271,16.747112 c 0,0 -4.47929,0.532475 -6.45612,1.522992 -2.80257,1.404262 -4.23934,5.034764 -7.208802,6.039066 -2.763974,0.934802 -6.01392,-1.422774 -8.744436,-0.394334 -2.875222,1.082943 -3.910991,4.986735 -6.645994,6.38653 -2.990991,1.530812 -6.92453,0.280671 -9.915965,1.810615 -2.555408,1.306941 -3.664684,4.640259 -6.212123,5.962665 -3.032775,1.574353 -7.15941,0.159368 -10.061384,1.963483 -2.760687,1.71629 -5.910351,7.757002 -5.910351,7.757002 z"
           sodipodi:nodetypes="csssssssccssssssscc" />
        <g
           id="g14552">
          <path
             id="rect13375"
             style="fill:#e7c27d;stroke-linecap:round;stroke-linejoin:round"
             d="m 49.870342,59.071216 c 0,0 4.13425,-0.299538 6.359809,0.251797 1.461606,0.362082 8.970767,1.872961 10.631864,2.841617 2.52075,1.469956 -1.144519,3.160077 -1.836311,2.888106 -5.033291,-1.196364 -10.22172,-4.437076 -15.155362,-5.98152 z"
             sodipodi:nodetypes="csscc" />
          <path
             id="path14534"
             style="fill:#e7c27d;stroke-linecap:round;stroke-linejoin:round"
             d="m 29.072233,51.128172 c 0,0 5.771656,0.107167 7.997215,0.658502 3.017545,0.747533 7.15045,4.892415 7.15045,4.892415 -5.03329,-1.196364 -10.214023,-4.006473 -15.147665,-5.550917 z"
             sodipodi:nodetypes="cscc" />
          <path
             id="path14538"
             style="fill:#e7c27d;stroke-linecap:round;stroke-linejoin:round"
             d="m 66.335198,51.898202 4.884567,-1.193412 c 1.895732,-0.463171 6.229946,5.187885 12.107106,4.286826 2.884337,-0.442213 -2.743962,2.266271 -3.435754,1.9943 -5.033291,-1.196364 -9.186786,-2.871019 -13.555919,-5.087714 z"
             sodipodi:nodetypes="csscc" />
          <path
             id="path14540"
             style="fill:#e7c27d;stroke-linecap:round;stroke-linejoin:round"
             d="m 47.889211,44.331498 c 0,0 3.808916,-1.446647 6.034475,-0.895312 3.017545,0.747533 6.102474,5.787634 6.102474,5.787634 -5.03329,-1.196364 -7.203307,-3.347878 -12.136949,-4.892322 z"
             sodipodi:nodetypes="cscc" />
          <path
             id="path14542"
             style="fill:#e7c27d;stroke-linecap:round;stroke-linejoin:round"
             d="m 82.658781,44.324103 7.613029,-0.722988 c 1.942753,-0.184497 3.877824,3.567295 9.75498,2.666236 2.88434,-0.442213 -1.61494,4.169116 -2.306732,3.897145 -5.033291,-1.196364 -10.692144,-3.623698 -15.061277,-5.840393 z"
             sodipodi:nodetypes="csscc" />
          <path
             id="path14544"
             style="fill:#e7c27d;stroke-linecap:round;stroke-linejoin:round"
             d="m 63.930539,36.019254 c 0,0 4.557368,-2.648948 6.034475,-0.895312 2.689311,3.192775 3.781927,2.899996 5.274379,3.40026 0.947247,1.412575 -0.434538,2.131447 -0.435938,2.13098 -5.03329,-1.196364 -5.939274,-3.091484 -10.872916,-4.635928 z"
             sodipodi:nodetypes="csccc" />
        </g>
      </g>
    </g>
  </g>
</svg>
