<?xml version="1.0" encoding="UTF-8" standalone="no"?>
<!-- Created with Inkscape (http://www.inkscape.org/) -->

<svg
   width="500"
   height="500"
   viewBox="0 0 500 500"
   version="1.1"
   id="svg362"
   xml:space="preserve"
   inkscape:version="1.3.2 (091e20e, 2023-11-25)"
   sodipodi:docname="icon.svg"
   inkscape:export-filename="icon.png"
   inkscape:export-xdpi="96"
   inkscape:export-ydpi="96"
   xmlns:inkscape="http://www.inkscape.org/namespaces/inkscape"
   xmlns:sodipodi="http://sodipodi.sourceforge.net/DTD/sodipodi-0.dtd"
   xmlns="http://www.w3.org/2000/svg"
   xmlns:svg="http://www.w3.org/2000/svg"><sodipodi:namedview
     id="namedview364"
     pagecolor="#505050"
     bordercolor="#eeeeee"
     borderopacity="1"
     inkscape:showpageshadow="0"
     inkscape:pageopacity="0"
     inkscape:pagecheckerboard="0"
     inkscape:deskcolor="#505050"
     inkscape:document-units="px"
     showgrid="false"
     showguides="true"
     inkscape:zoom="1.4142136"
     inkscape:cx="278.95362"
     inkscape:cy="187.3833"
     inkscape:window-width="1536"
     inkscape:window-height="1027"
     inkscape:window-x="1920"
     inkscape:window-y="25"
     inkscape:window-maximized="0"
     inkscape:current-layer="layer1"><inkscape:grid
       type="xygrid"
       id="grid1049"
       originx="0"
       originy="0"
       spacingy="1"
       spacingx="1"
       units="px"
       visible="false" /><sodipodi:guide
       position="250,250"
       orientation="-1,0"
       id="guide4"
       inkscape:locked="false"
       inkscape:label=""
       inkscape:color="rgb(0,134,229)" /><sodipodi:guide
       position="250,250"
       orientation="0,1"
       id="guide5"
       inkscape:locked="false"
       inkscape:label=""
       inkscape:color="rgb(0,134,229)" /></sodipodi:namedview><defs
     id="defs359" /><g
     inkscape:label="Layer 1"
     inkscape:groupmode="layer"
     id="layer1"><path
       id="rect8"
       style="fill:#e7c27d;fill-opacity:1;stroke:#000000;stroke-width:1.99203;stroke-linejoin:round;stroke-dasharray:none;stroke-opacity:1;paint-order:stroke fill markers"
       d="M 250,0.99601594 C 112.4789,0.9960137 0.9960137,112.4789 0.99601594,250 0.99601042,387.52111 112.47889,499.00399 250,499.00399 387.5211,499.00399 499.00399,387.5211 499.00398,250 499.00398,112.4789 387.5211,0.99601594 250,0.99601594 Z"
       sodipodi:nodetypes="sssss" /><g
       id="g28451"
       transform="translate(461.91136,220.5)"
       style="stroke-width:10;stroke-dasharray:none" /><ellipse
       style="fill:none;fill-opacity:1;stroke:#000000;stroke-width:12.8205;stroke-linejoin:round;stroke-dasharray:none;stroke-opacity:1;paint-order:stroke fill markers"
       id="path45178"
       cx="250"
       cy="249.99997"
       rx="243.58974"
       ry="243.58972" /><path
       style="fill:#000000;stroke-width:0.481067"
       d="M 244.65414,416.65291 80.592561,332.61169 C 73.243749,328.84723 70.264633,321.56713 67.804457,314.17734 l -9.920078,-5.12442 c -11.731247,-6.06 -15.580118,-8.46262 -19.435627,-12.13234 -5.519472,-5.25355 -7.562322,-9.70646 -7.562322,-16.48418 0,-9.5404 1.442671,-10.81718 25.015473,-22.13881 l 12.748269,-6.12279 c -0.166348,-9.91947 -0.282617,-26.1673 -1.403608,-33.69065 -1.000239,-6.71297 -3.239733,-11.11742 -0.550148,-16.42502 1.445576,-2.85269 2.338299,-4.88103 8.554188,-7.70688 L 226.09808,125.77444 c 4.31058,-1.95966 15.47056,-7.77183 23.90192,-7.7717 9.79812,1.5e-4 14.98753,4.64118 18.71741,6.33361 l 145.56237,66.04868 c 6.25031,2.83606 8.277,4.50716 10.38554,6.56475 3.22629,3.14833 5.86075,7.95732 6.98375,12.74827 1.10557,4.71657 0.0383,13.25348 -0.72459,20.44466 -0.66101,6.23027 -1.86763,9.59445 -0.51057,17.97796 1.24912,7.71672 31.09385,15.11266 35.54879,20.95344 6.02463,7.8987 4.29926,19.21196 -4.13726,27.12805 -8.87822,7.28964 -19.46193,12.30214 -29.48365,17.86903 -2.55605,7.00004 -5.52756,13.73483 -11.92553,18.0392 l -162.0518,83.73158 c -3.16786,1.63682 -10.82322,2.28987 -13.71032,0.81094 z M 455.69431,279.95534 432.8932,269.36624 c -1.51007,0.64071 0.19437,10.234 -3.15003,16.78955 l -170.8311,88.40336 c -4.68574,1.19336 -13.12918,0.77335 -17.3184,-0.8615 L 71.365794,285.18959 c -1.505435,-3.12532 -1.969828,-8.71572 -2.548403,-16.15592 L 46.451634,280.25273 240.39933,385.33567 c 7.31405,4.1248 14.95511,3.20441 18.83484,1.14782 z M 273.82514,266.30085 c 12.27476,-5.90246 19.86586,-1.21378 35.81737,-14.16684 16.19983,-13.15471 18.32002,-13.91062 31.13627,-16.4754 13.93818,-2.78932 15.35765,-3.4312 25.41119,-11.49089 11.0242,-8.83784 16.2818,-11.66519 26.58861,-14.29839 12.19015,-3.11438 3.28678,1.198 18.48808,-2.96176 -1.9225,-1.02433 -3.80865,-2.13272 -5.79111,-3.05348 L 264.04834,138.16775 c -7.66016,-3.55779 -8.80361,-4.18722 -14.04834,-4.23991 -2.01812,-0.0203 -8.28339,1.46387 -16.51087,5.13199 L 92.666374,201.84395 c -7.288127,3.24933 -9.664519,4.93262 -10.215501,5.80369 16.527939,2.82526 31.107617,10.20993 46.573167,21.03777 7.42502,5.23335 10.79441,6.28772 24.53441,7.67747 15.19112,1.53653 20.38218,5.57987 30.78827,14.21276 9.56413,7.93439 14.10385,10.96271 28.84855,12.99979 24.72943,3.41654 20.2627,15.03464 32.96853,19.05294 3.25807,1.0304 5.64575,0.8149 8.12258,-0.48801 7.56964,-3.9819 9.9418,-11.22472 19.53876,-15.83951 z"
       id="path3"
       sodipodi:nodetypes="sscsssscssssssssssssscscsscccccccccsssssscssssscsssssss" /><path
       id="rect3"
       style="fill:#e7c27d;fill-opacity:1;stroke-width:4.81067;stroke-linecap:round;stroke-linejoin:bevel"
       d="m 83.349881,261.72404 c -0.948028,3.57839 -0.355017,7.93574 -0.267785,11.71097 34.244794,14.45592 14.749315,13.51647 36.436104,23.9077 23.93416,11.46806 23.15061,-5.94721 48.43459,19.22294 9.81172,10.80827 20.76921,16.42119 35.65626,16.83076 21.77909,0.0271 27.15897,18.095 44.72699,21.42908 10.26702,1.94849 24.83278,-1.65476 36.39101,-9.81489 6.73599,-4.75562 15.89935,-16.04896 23.7508,-20.03286 17.62618,-8.94369 24.6862,3.28472 47.6134,-18.77006 11.29727,-10.86741 14.63556,-12.65295 24.77117,-13.24907 10.58883,-0.62277 15.75142,-2.82896 23.53187,-10.05448 3.41623,-3.93674 7.77537,-5.93943 12.54814,-7.55989 -0.12439,-1.79357 0.9221,-12.08361 -0.5863,-12.00975 -9.79745,2.76498 -12.28196,4.09933 -18.1753,9.75945 -6.84151,6.57076 -11.44902,8.44771 -20.33823,8.28619 -10.2199,-0.18572 -17.97144,4.78643 -28.9138,15.22501 -12.51376,15.56582 -23.31609,9.43705 -37.82106,14.30422 -13.58453,3.88592 -21.82726,15.62036 -32.44382,23.95092 -8.92588,6.69734 -21.28988,10.06438 -29.14682,7.9376 -11.36165,-3.07546 -22.95582,-21.40965 -43.75359,-21.42532 -8.8454,-0.007 -15.45366,-1.74272 -20.92453,-5.49657 -9.56751,-6.56482 -15.48176,-18.89921 -31.96369,-24.32487 -7.61136,-2.50556 -20.65282,0.5793 -32.01443,-6.76406 -13.45015,-11.20747 -19.33868,-19.03446 -37.510979,-23.06302 z"
       sodipodi:nodetypes="scssssssssscssssssssssss" /><path
       id="path4"
       style="fill:#e7c27d;fill-opacity:1;stroke-width:4.81067;stroke-linecap:round;stroke-linejoin:bevel"
       d="m 83.562479,226.34682 c -0.948028,3.57839 -0.355017,7.93575 -0.267785,11.71097 34.244796,14.45592 14.749307,13.51647 36.436106,23.9077 23.93416,11.46806 23.15061,-5.94722 48.43459,19.22294 9.81172,10.80827 20.76921,16.42119 35.65625,16.83076 21.7791,0.0271 27.15898,18.095 44.727,21.42909 10.26702,1.94848 24.83277,-1.65477 36.39101,-9.8149 6.73599,-4.75562 15.89935,-16.04896 23.7508,-20.03286 17.62618,-8.94369 24.6862,3.28473 47.61339,-18.77006 11.29728,-10.86741 14.63557,-12.65295 24.77118,-13.24907 10.58882,-0.62277 15.75142,-2.82897 23.53187,-10.05448 3.41623,-3.93674 7.77537,-5.93944 12.54814,-7.55989 -0.1244,-1.79358 0.92209,-12.08361 -0.5863,-12.00976 -9.79746,2.76499 -12.28196,4.09933 -18.17531,9.75946 -6.8415,6.57076 -11.44901,8.44771 -20.33822,8.28619 -10.2199,-0.18572 -17.97145,4.78642 -28.9138,15.22501 -12.51377,15.56582 -23.3161,9.43705 -37.82106,14.30422 -13.58453,3.88592 -21.82726,15.62037 -32.44382,23.95092 -8.92588,6.69734 -21.28989,10.06438 -29.14682,7.9376 -11.36165,-3.07546 -22.95583,-21.40965 -43.75359,-21.42532 -8.8454,-0.007 -15.45366,-1.74272 -20.92453,-5.49656 -9.56751,-6.56482 -15.48176,-18.89923 -31.96369,-24.32488 -7.61136,-2.50556 -20.65282,0.5793 -32.01443,-6.76406 -13.45015,-11.20747 -19.33868,-19.03446 -37.510981,-23.06302 z"
       sodipodi:nodetypes="scssssssssscssssssssssss" /></g></svg>
